<?xml version="1.0" encoding="UTF-8"?>
<svg id="Layer_2" xmlns="http://www.w3.org/2000/svg" version="1.1" viewBox="0 0 1401.6 290.5">
  <!-- Generator: Adobe Illustrator 30.4.0, SVG Export Plug-In . SVG Version: 2.1.4 Build 226)  -->
  <defs>
    <style>
      .st0 {
        fill: #d4ff00;
      }
    </style>
  </defs>
  <g id="Logo">
    <g>
      <path class="st0" d="M294,227l-26.9,50.2h-7.6l-5.6-39.9-21.9,39.9h-7.6l-6.8-50.2h7l5.5,41,22.2-41h6.7l5.6,41.1,22.1-41.1h7.2Z"/>
      <path class="st0" d="M292.7,256.7c0-16.7,12-30.2,30.5-30.2s23.7,8.6,23.7,21.2-12.1,30.2-30.6,30.2-23.6-8.6-23.6-21.2h0ZM339.7,248.1c0-9.1-5.9-15.2-17-15.2s-22.8,10.8-22.8,23.4,6,15.2,17.1,15.2,22.7-10.8,22.7-23.4Z"/>
      <path class="st0" d="M384.7,260.9l9.2,16.4h-7.6l-8.8-15.4h-14.8l-3,15.4h-7.2l10-50.2h18.7c11.8,0,18.5,5.4,18.5,14.7s-5.6,16.7-15.1,19.2h0ZM392.6,242.4c0-6-4.3-9.1-12-9.1h-12.1l-4.5,22.5h12.4c10.3,0,16.2-4.6,16.2-13.4h0Z"/>
      <path class="st0" d="M430.7,250.5l18.2,26.8h-8l-15.3-22.5-11.1,9.5-2.6,13.1h-7.2l10-50.2h7.2l-5.5,27.8,32.2-27.8h9.3l-27.1,23.3h-.1c0,.1,0,.1,0,.1Z"/>
      <path class="st0" d="M472.2,233.3l-3.5,17.5h25.3l-1.2,6.2h-25.3l-4,20.3h-7.2l10-50.2h35.5l-1.2,6.2h-28.4Z"/>
      <path class="st0" d="M511.9,227h7.2l-8.8,44h27.3l-1.2,6.2h-34.5l10-50.2h0Z"/>
      <path class="st0" d="M544.2,256.7c0-16.7,12-30.2,30.5-30.2s23.7,8.6,23.7,21.2-12.1,30.2-30.6,30.2-23.6-8.6-23.6-21.2h0ZM591.1,248.1c0-9.1-5.9-15.2-17-15.2s-22.8,10.8-22.8,23.4,6,15.2,17.1,15.2,22.7-10.8,22.7-23.4Z"/>
      <path class="st0" d="M683.5,227l-26.8,50.2h-7.6l-5.6-39.9-21.9,39.9h-7.6l-6.8-50.2h7l5.5,41,22.2-41h6.7l5.6,41.1,22.1-41.1h7.2Z"/>
      <path class="st0" d="M678.8,271.8l3.2-5.7c3.8,3.5,10,5.7,16.3,5.7s13.6-3.1,13.6-8.5c0-10.5-25.8-5.1-25.8-21.2s8.6-15.6,20.9-15.6,12.1,1.5,16.2,4.2l-2.9,5.9c-3.7-2.7-8.5-4-13.6-4-8.3,0-13.5,3.5-13.5,8.8,0,10.6,25.8,5.5,25.8,20.8s-8.8,15.6-21.2,15.6-15.2-2.7-18.8-6.1h0Z"/>
      <path class="st0" d="M762,233.3l-3.1,15.4h25.3l-1.2,6.1h-25.3l-3.2,16.2h29.4l-1.2,6.2h-36.5l10-50.2h35.5l-1.2,6.2h-28.4Z"/>
      <path class="st0" d="M847.1,227l-32.2,50.2h-7l-12.1-50.2h7.4l9.8,41.4,26.6-41.4h7.5Z"/>
      <path class="st0" d="M843.5,256.7c0-16.7,12-30.2,30.5-30.2s23.7,8.6,23.7,21.2-12.1,30.2-30.6,30.2-23.6-8.6-23.6-21.2h0ZM890.5,248.1c0-9.1-5.9-15.2-17-15.2s-22.8,10.8-22.8,23.4,6,15.2,17.1,15.2,22.7-10.8,22.7-23.4Z"/>
      <path class="st0" d="M913.3,227h7.2l-8.8,44h27.3l-1.2,6.2h-34.5l10-50.2h0Z"/>
      <path class="st0" d="M995.9,227l-32.2,50.2h-7l-12.1-50.2h7.4l9.8,41.4,26.6-41.4h7.5Z"/>
      <path class="st0" d="M1008.2,233.3l-3.1,15.4h25.3l-1.2,6.1h-25.3l-3.2,16.2h29.4l-1.2,6.2h-36.5l10-50.2h35.5l-1.2,6.2h-28.4Z"/>
      <path class="st0" d="M1050.4,227h19.7c15.2,0,24.1,8.1,24.1,20.6,0,17.7-12.5,29.6-31.3,29.6h-22.5l10.1-50.2h0ZM1063,271.1c14.8,0,23.8-9.7,23.8-23s-5.8-14.8-17.5-14.8h-13.1l-7.5,37.8h14.3Z"/>
    </g>
    <path class="st0" d="M286.6,159.7h0c.6-2.3,2.5-3.9,4.8-4.2,8.4-1.2,12.7-3.6,20.9-12.5l41.4-45.8c1.4-1.5,1.8-3.6,1.2-5.5l-16.2-49.8c-2.7-8-5.9-10.7-10.6-12-2.9-.8-4.5-3.9-3.8-6.8l.2-.7c.6-2.6,2.9-4.3,5.5-4.3h67.9c3.6,0,6.3,3.4,5.5,6.9v.2c-.6,2.2-2.3,3.8-4.5,4.2-8.8,1.9-12.9,7.5-10.5,15.4l4.2,12.6c1.4,4.1,6.7,5.2,9.6,2l13.7-15.3c7.6-8.6,7.3-12.5,2.3-14.3-2.7-.9-4.2-3.8-3.5-6.6l.2-.9c.6-2.6,2.9-4.3,5.5-4.3h39c3.6,0,6.3,3.4,5.5,6.9h0c-.5,2.3-2.5,4-4.8,4.4-8.3,1.2-11.7,3.6-19.5,12.5l-36.7,40.9c-1.4,1.5-1.8,3.6-1.2,5.5l18.1,54.7c2.4,7.5,6.7,10.3,11.1,11.8,2.8.9,4.4,3.9,3.7,6.7l-.3,1.1c-.6,2.5-2.9,4.2-5.5,4.2h-67.9c-3.7,0-6.4-3.5-5.5-7v-.2c.6-2.1,2.3-3.7,4.4-4.1,7.9-1.7,13.1-6.2,10.1-14.8l-6.1-18.7c-1.4-4.1-6.7-5.3-9.6-2l-18.3,20.5c-7.7,8.7-6.6,12.6-1.6,14.4,2.7,1,4.3,3.9,3.5,6.7l-.2.8c-.7,2.7-2.9,4.4-5.5,4.4h-41.1c-3.7,0-6.4-3.5-5.5-7h0Z"/>
    <path class="st0" d="M535.9,166.7h-64.1c-3.7,0-6.4-3.5-5.5-7h0c.6-2.3,2.5-3.9,4.8-4.2,8.9-1.2,11.4-3.5,13.6-12.6l25.1-101.6c.9-3.8-.2-6.4-4-6.4-8.3,0-25.9,8.4-38.9,24.7-1.8,2.2-4.9,2.7-7.3,1.2h0c-2.4-1.5-3.3-4.5-2.2-7l16.5-37.3c.9-2,2.9-3.3,5.1-3.3h3.5c1.9,0,3.6,1,4.7,2.5,1,1.4,2.7,2.2,5.4,2.2h86.3c3,0,5.3-1,7-2.7,1.1-1.2,2.6-2,4.3-2h3c2.9,0,5.3,2.2,5.6,5l3.7,35.4c.3,2.7-1.4,5.2-4,6l-.8.2c-2.7.8-5.5-.5-6.7-3-7.2-15.2-18.4-21.9-26.6-21.9s-6.8,2.5-7.7,6.4l-25.1,101.6c-2,8.2-1.1,10.9,5.5,12.2,3.1.6,5,3.8,4.2,6.9v.5c-.8,2.5-3,4.2-5.6,4.2h0Z"/>
    <path class="st0" d="M603.7,146.3c0,11.5-8.7,23.6-24.9,23.6s-23-11.3-23-22.3,8.3-23.8,24.7-23.8,23.2,11.5,23.2,22.5h0Z"/>
    <path class="st0" d="M682.2,149.7c13.9,0,40.2-13.7,58.3-30.4,1.8-1.7,4.6-2,6.7-.6h0c2.4,1.6,3,4.8,1.5,7.3l-23.6,38.2c-1,1.6-2.7,2.5-4.5,2.5h-105.6c-3.5,0-6-3.3-5.2-6.6l.2-.6c.5-2.1,2.4-3.7,4.5-4,9.1-1.1,11.5-3.5,13.8-12.6l25.1-101.2c1.9-8.3,1-11-5.6-12.2-3-.6-4.8-3.6-4.1-6.6l.2-.9c.6-2.4,2.7-4.1,5.2-4.1h64.8c3.4,0,6,3.2,5.2,6.5v.6c-.7,2.2-2.5,3.8-4.7,4.1-9.3,1.1-11.8,3.5-13.9,12.6l-25.3,101.6c-.8,3.8.6,6.4,4.5,6.4h2.5,0Z"/>
    <path class="st0" d="M814.3,149.7c22.9,0,49.3-14,67.4-30.8,1.9-1.8,4.8-1.9,7-.4h0c2.5,1.8,3.2,5.1,1.6,7.7l-23.4,37.8c-1,1.7-2.8,2.7-4.8,2.7h-117.8c-3.7,0-6.4-3.5-5.5-7h0c.6-2.3,2.5-3.9,4.8-4.2,9-1.2,11.5-3.5,13.8-12.6l25.1-101.2c1.9-8.2.9-10.9-5.6-12.2-3.1-.6-5-3.7-4.3-6.8v-.4c.7-2.6,3-4.3,5.6-4.3h110.1c2.8,0,5.2,2.1,5.6,4.9l4,30.7c.4,2.8-1.3,5.4-4,6.2l-.9.2c-2.5.8-5.3-.4-6.5-2.7-9-16.3-23.7-22.3-48-22.3h-1.7c-3.8,0-6.6,2.5-7.4,6.4l-8,32.3c-.9,3.6,1.8,7,5.5,7h12.5c12.9,0,17.6-5.8,20.1-13.2.8-2.3,2.8-3.8,5.2-3.8h.8c3.7,0,6.4,3.4,5.5,7l-9.8,39.7c-.6,2.5-2.9,4.3-5.5,4.3h-1.1c-3.3,0-5.8-2.8-5.6-6,.3-6.3-2.3-11-13.9-11h-15.3c-2.6,0-4.9,1.8-5.5,4.3l-10.2,41.4c-.8,3.8.4,6.4,4.2,6.4h5.7Z"/>
    <path class="st0" d="M928,166.7c-.2,0-.5-.2-.5-.4l-17.8-124.6c-1.2-9.9-5.9-11.8-12-12.9-.3,0-.5-.3-.4-.6l2.5-9.9c0-.2.3-.4.5-.4h72.8c.3,0,.6.3.5.6l-2.5,9.9c0,.2-.2.4-.4.4-10.8,1.1-15.6,2.8-14.1,12.9l11.7,79.5c0,.5.7.6.9.2l50.5-79.7c6.5-10,2.5-11.8-7.7-12.9-.3,0-.5-.3-.4-.6l2.5-9.9c0-.2.3-.4.5-.4h44.5c.3,0,.6.3.5.6l-2.5,9.9c0,.2,1,.3.8.4-1.2.2-2.9.3-3.7.5-5.7,1.2-9.3,3.7-14.8,12.5l-79.2,124.8c0,.1-.2.2-.4.2h-31.6,0ZM1056.9,28.4c0,.2-.1.8-.3.8-.8,0-1.8,0-2.6,0"/>
    <path class="st0" d="M926.9,166.6c-.2,0-.5-.2-.5-.4l-17.8-124.6c-1.2-9.9-5.9-11.8-12-12.9-.3,0-.5-.3-.4-.6l2.5-9.9c0-.2.3-.4.5-.4h72.8c.3,0,.6.3.5.6l-2.5,9.9c0,.2-.2.4-.4.4-10.8,1.1-15.6,2.8-14.1,12.9l11.7,79.5c0,.5.7.6.9.2l50.5-79.7c6.5-10,2.5-11.8-7.7-12.9-.3,0-.5-.3-.4-.6l2.5-9.9c0-.2.3-.4.5-.4h44.5c.3,0,.6.3.5.6l-2.5,9.9c0,.2,1,.3.8.4-1.2.2-2.9.3-3.7.5-5.7,1.2-9.3,3.7-14.8,12.5l-79.2,124.8c0,.1-.2.2-.4.2h-31.6Z"/>
    <path class="st0" d="M1095.4,149.7c23.4,0,50.6-14.7,68.8-32,1.1-1,2.7-1.2,4-.3l3.7,2.6c1.4.9,1.8,2.8.9,4.2l-25.4,41.1c-.6.9-1.6,1.5-2.7,1.5h-122.5c-2,0-3.5-1.9-3-3.9l1.2-4.8c.3-1.3,1.4-2.2,2.7-2.3,10.3-1.1,13.1-3.2,15.5-12.8l25.1-101.2c2.2-9.1,2.6-11.6-8-12.6-1.8-.2-2.9-2-2.5-3.7l1.2-5.1c.3-1.4,1.6-2.4,3-2.4h114.3c1.6,0,2.9,1.2,3.1,2.7l4.6,35c.2,1.5-.7,3-2.2,3.4l-4.9,1.5c-1.4.4-2.9-.3-3.6-1.6-8.9-17.6-23.8-24-48.8-24h-1.7c-3.8,0-6.6,2.5-7.4,6.4l-8.8,35.5c-.5,2,1,3.9,3,3.9h15.8c13.9,0,18.3-6.7,20.7-14.9.4-1.2,1.5-2.1,2.8-2.1h5.9c2,0,3.5,1.9,3,3.9l-11,44.8c-.3,1.4-1.6,2.4-3,2.4h-5.9c-1.9,0-3.4-1.7-3.1-3.6,1.1-7.5-.6-13.4-13.7-13.4h-17.3c-1.4,0-2.7,1-3,2.4l-10.7,43.3c-.8,3.8.4,6.4,4.2,6.4h5.8Z"/>
    <path class="st0" d="M1095.4,149.6c23.4,0,50.6-14.7,68.8-32,1.1-1,2.7-1.2,4-.3l3.7,2.6c1.4.9,1.8,2.8.9,4.2l-25.4,41.1c-.6.9-1.6,1.5-2.7,1.5h-122.5c-2,0-3.5-1.9-3-3.9l1.2-4.8c.3-1.3,1.4-2.2,2.7-2.3,10.3-1.1,13.1-3.2,15.5-12.8l25.1-101.2c2.1-9.1,1.5-11.4-8-12.6-1.8-.2-2.9-2-2.5-3.7l1.2-5.1c.3-1.4,1.6-2.4,3-2.4h114.3c1.6,0,2.9,1.2,3.1,2.7l4.6,35c.2,1.5-.7,3-2.2,3.4l-4.9,1.5c-1.4.4-2.9-.3-3.6-1.6-8.9-17.6-23.8-24-48.8-24h-1.7c-3.8,0-6.6,2.5-7.4,6.4l-8.8,35.5c-.5,2,1,3.9,3,3.9h15.8c13.9,0,18.3-6.7,20.7-14.9.4-1.2,1.5-2.1,2.8-2.1h5.9c2,0,3.5,1.9,3,3.9l-11,44.8c-.3,1.4-1.6,2.4-3,2.4h-5.9c-1.9,0-3.4-1.7-3.1-3.6,1.1-7.5-.6-13.4-13.7-13.4h-17.3c-1.4,0-2.7,1-3,2.4l-10.7,43.3c-.8,3.8.4,6.4,4.2,6.4h5.8Z"/>
    <path class="st0" d="M1095.3,149.6c23.4,0,50.6-14.7,68.8-32,1.1-1,2.7-1.2,4-.3l3.7,2.6c1.4.9,1.8,2.8.9,4.2l-25.4,41.1c-.6.9-1.6,1.5-2.7,1.5h-122.5c-2,0-3.5-1.9-3-3.9l1.2-4.8c.3-1.3,1.4-2.2,2.7-2.3,10.3-1.1,13.1-3.2,15.5-12.8l25.1-101.2c2.1-9.1,1.5-11.4-8-12.6-1.8-.2-2.9-2-2.5-3.7l1.2-5.1c.3-1.4,1.6-2.4,3-2.4h114.3c1.6,0,2.9,1.2,3.1,2.7l4.6,35c.2,1.5-.7,3-2.2,3.4l-4.9,1.5c-1.4.4-2.9-.3-3.6-1.6-8.9-17.6-23.8-24-48.8-24h-1.7c-3.8,0-6.6,2.5-7.4,6.4l-8.8,35.5c-.5,2,1,3.9,3,3.9h15.8c13.9,0,18.3-6.7,20.7-14.9.4-1.2,1.5-2.1,2.8-2.1h5.9c2,0,3.5,1.9,3,3.9l-11,44.8c-.3,1.4-1.6,2.4-3,2.4h-5.9c-1.9,0-3.4-1.7-3.1-3.6,1.1-7.5-.6-13.4-13.7-13.4h-17.3c-1.4,0-2.7,1-3,2.4l-10.7,43.3c-.8,3.8.4,6.4,4.2,6.4h5.8Z"/>
    <path class="st0" d="M1095.4,149.5c23.4,0,50.6-14.7,68.8-32,1.1-1,2.7-1.2,4-.3l3.7,2.6c1.4.9,1.8,2.8.9,4.2l-25.4,41.1c-.6.9-1.6,1.5-2.7,1.5h-122.5c-2,0-3.5-1.9-3-3.9l1.2-4.8c.3-1.3,1.4-2.2,2.7-2.3,10.3-1.1,13.1-3.2,15.5-12.8l25.1-101.2c2.1-9.1.6-11.5-8-12.6-1.8-.2-2.9-2-2.5-3.7l1.2-5.1c.3-1.4,1.6-2.4,3-2.4h114.3c1.6,0,2.9,1.2,3.1,2.7l4.6,35c.2,1.5-.7,3-2.2,3.4l-4.9,1.5c-1.4.4-2.9-.3-3.6-1.6-8.9-17.6-23.8-24-48.8-24h-1.7c-3.8,0-6.6,2.5-7.4,6.4l-8.8,35.5c-.5,2,1,3.9,3,3.9h15.8c13.9,0,18.3-6.7,20.7-14.9.4-1.2,1.5-2.1,2.8-2.1h5.9c2,0,3.5,1.9,3,3.9l-11,44.8c-.3,1.4-1.6,2.4-3,2.4h-5.9c-1.9,0-3.4-1.7-3.1-3.6,1.1-7.5-.6-13.4-13.7-13.4h-17.3c-1.4,0-2.7,1-3,2.4l-10.7,43.3c-.8,3.8.4,6.4,4.2,6.4h5.8Z"/>
    <path class="st0" d="M1233.9,149.7c13.9,0,40.2-13.7,58.3-30.4,1.8-1.7,4.6-2,6.7-.6h0c2.4,1.6,3.1,4.8,1.6,7.3l-23.6,38.2c-1,1.6-2.7,2.5-4.5,2.5h-105.6c-3.5,0-6-3.3-5.2-6.6l.2-.6c.5-2.1,2.4-3.7,4.6-4,9.1-1.1,11.5-3.5,13.8-12.6l25.1-101.2c1.9-8.3,1-11-5.6-12.2-3-.6-4.8-3.6-4.1-6.6l.2-.9c.6-2.4,2.7-4.1,5.2-4.1h64.8c3.4,0,6,3.2,5.2,6.5v.6c-.7,2.2-2.5,3.8-4.7,4.1-9.3,1.1-11.8,3.5-13.9,12.6l-25.3,101.6c-.8,3.8.6,6.4,4.5,6.4h2.6,0Z"/>
    <path class="st0" d="M3.7,165.3l2.2-8.8c.1-.4.5-.8,1-.8,11.5-1.1,15.7-2.9,18.2-12.9l25.1-101.2c2.2-9.8-.8-11.8-11.3-12.9-.7,0-1.1-.7-1-1.3l1.3-5.4c.6-2.5,2.7-4.2,5.1-4.2h56.4l1,.7,28.5,75.8c.4,1,1.8.9,2.1-.1l13.2-52.5c2.5-9.8-.6-11.8-11.1-12.9-.7,0-1.1-.7-1-1.3l1.3-5.4c.6-2.5,2.7-4.2,5.1-4.2h44.7l1.1,1.3-2.1,8.8c-.1.4-.5.8-1,.8-12.6-.4-15.9,2.9-18.1,12.9l-30.8,124.2-1.1.8h-23.7c-.4-.3-.7-.4-1-.7l-40.8-107.4c-.4-1-1.8-.9-2.1.1l-20.6,84.2c-2.5,9.8.8,11.8,11.5,12.9.7,0,1.1.7,1,1.4l-1.4,5.5c-.6,2.5-2.7,4.1-5,4.1H4.8l-1.1-1.4h0Z"/>
    <path class="st0" d="M225.6,149.7c24.2,0,52.5-15.7,70.6-33.8h0l8.3,5.7h0l-27.9,45.1h-128.2l2.8-10.9c12.1-1.1,15.1-2.8,17.6-13l25.1-101.2c2.3-10.2.1-11.8-11.4-12.9l.3-10.9h121.8c0,0,5.3,40.3,5.3,40.3l-10,3c-8.7-19.4-23.8-26.4-50-26.4h-1.7c-3.8,0-6.6,2.5-7.4,6.4l-9.8,39.3h19.8c15.1,0,18.9-7.9,21.3-17h4.8c3.8,0,6.5,3.4,5.6,7l-10.8,44h-12.1c2.1-9.1,2.1-17-13-17h-19.8l-11.3,45.7c-.9,3.8.4,6.4,4.2,6.4h5.7Z"/>
  </g>
  <g>
    <path class="st0" d="M1316.7,25.4h-15.1v-7.9h38.6v7.9h-15.1v42.2h-8.4V25.4Z"/>
    <path class="st0" d="M1388.3,67.6v-33.2c0,0-15,27.4-15,27.4h-3.8l-14.9-27v32.7h-8.1V17.6h6.9l18,33.2,17.7-33.2h6.9v50c0,0-7.9,0-7.9,0Z"/>
  </g>
</svg>